<svg width="292" height="130" viewBox="0 0 292 130" fill="none" xmlns="http://www.w3.org/2000/svg">
<rect width="292" height="130" fill="black"/>
<path d="M54.9883 53.543V65.4023H55.5684C57.416 65.4023 58.7552 64.8223 59.5859 63.6621C60.4167 62.502 60.9466 60.7904 61.1758 58.5273H61.9922V73.7812H61.1758C61.0039 72.1198 60.6387 70.7591 60.0801 69.6992C59.5358 68.6393 58.8984 67.9303 58.168 67.5723C57.4375 67.1999 56.3776 67.0137 54.9883 67.0137V75.2207C54.9883 76.8249 55.0527 77.806 55.1816 78.1641C55.3249 78.5221 55.5827 78.8158 55.9551 79.0449C56.3275 79.2741 56.929 79.3887 57.7598 79.3887H59.5C62.2214 79.3887 64.3984 78.7585 66.0312 77.498C67.6784 76.2376 68.86 74.3184 69.5762 71.7402H70.3711L69.0605 81H43.8809V80.2051H44.8477C45.6927 80.2051 46.373 80.0547 46.8887 79.7539C47.2611 79.5534 47.5475 79.2096 47.748 78.7227C47.9056 78.3789 47.9844 77.4766 47.9844 76.0156V56.8516C47.9844 55.5339 47.9486 54.7246 47.877 54.4238C47.7337 53.9225 47.4688 53.5358 47.082 53.2637C46.5378 52.8626 45.793 52.6621 44.8477 52.6621H43.8809V51.8672H68.2656V60.4824H67.4492C67.0339 58.377 66.4466 56.8659 65.6875 55.9492C64.9427 55.0326 63.8828 54.3594 62.5078 53.9297C61.7057 53.6719 60.2018 53.543 57.9961 53.543H54.9883ZM72.9277 81V80.2051H73.8945C74.7396 80.2051 75.3841 80.0762 75.8281 79.8184C76.2865 79.5462 76.623 79.181 76.8379 78.7227C76.9668 78.4219 77.0312 77.5195 77.0312 76.0156V56.8516C77.0312 55.362 76.9525 54.431 76.7949 54.0586C76.6374 53.6862 76.3151 53.3639 75.8281 53.0918C75.3555 52.8053 74.7109 52.6621 73.8945 52.6621H72.9277V51.8672H85.9688C89.4492 51.8672 92.2493 52.3398 94.3691 53.2852C96.9616 54.4453 98.9238 56.1999 100.256 58.5488C101.602 60.8978 102.275 63.5547 102.275 66.5195C102.275 68.5677 101.946 70.4583 101.287 72.1914C100.628 73.9102 99.776 75.3353 98.7305 76.4668C97.6849 77.584 96.4746 78.4863 95.0996 79.1738C93.7389 79.847 92.0703 80.3698 90.0938 80.7422C89.2201 80.9141 87.8451 81 85.9688 81H72.9277ZM84.0352 53.5215V76.252C84.0352 77.4551 84.0924 78.1927 84.207 78.4648C84.3216 78.737 84.515 78.9447 84.7871 79.0879C85.1738 79.3027 85.7324 79.4102 86.4629 79.4102C88.8548 79.4102 90.681 78.5938 91.9414 76.9609C93.6602 74.7552 94.5195 71.332 94.5195 66.6914C94.5195 62.9531 93.9323 59.9668 92.7578 57.7324C91.8268 55.985 90.6309 54.7962 89.1699 54.166C88.1387 53.722 86.4271 53.5072 84.0352 53.5215ZM105.176 51.8672H120.215V52.6621H119.463C118.331 52.6621 117.551 52.7839 117.121 53.0273C116.706 53.2565 116.405 53.5788 116.219 53.9941C116.047 54.4095 115.961 55.4479 115.961 57.1094V71.375C115.961 73.9818 116.154 75.7077 116.541 76.5527C116.942 77.3978 117.594 78.0996 118.496 78.6582C119.398 79.2168 120.537 79.4961 121.912 79.4961C123.488 79.4961 124.827 79.1452 125.93 78.4434C127.047 77.7272 127.878 76.7461 128.422 75.5C128.98 74.2539 129.26 72.084 129.26 68.9902V57.1094C129.26 55.806 129.124 54.875 128.852 54.3164C128.579 53.7578 128.236 53.3711 127.82 53.1562C127.176 52.8268 126.266 52.6621 125.092 52.6621V51.8672H135.168V52.6621H134.566C133.75 52.6621 133.07 52.8268 132.525 53.1562C131.981 53.4857 131.587 53.9798 131.344 54.6387C131.158 55.097 131.064 55.9206 131.064 57.1094V68.1738C131.064 71.597 130.835 74.0677 130.377 75.5859C129.933 77.1042 128.837 78.5007 127.09 79.7754C125.342 81.0501 122.958 81.6875 119.936 81.6875C117.415 81.6875 115.467 81.3509 114.092 80.6777C112.215 79.7611 110.891 78.5866 110.117 77.1543C109.344 75.722 108.957 73.7956 108.957 71.375V57.1094C108.957 55.4336 108.864 54.3952 108.678 53.9941C108.492 53.5788 108.169 53.2493 107.711 53.0059C107.253 52.7624 106.408 52.6478 105.176 52.6621V51.8672ZM147.629 67.7227V75.8867C147.629 77.4622 147.722 78.4577 147.908 78.873C148.109 79.2741 148.452 79.5964 148.939 79.8398C149.426 80.0833 150.336 80.2051 151.668 80.2051V81H136.758V80.2051C138.104 80.2051 139.014 80.0833 139.486 79.8398C139.973 79.582 140.31 79.2526 140.496 78.8516C140.697 78.4505 140.797 77.4622 140.797 75.8867V56.9805C140.797 55.4049 140.697 54.4167 140.496 54.0156C140.31 53.6003 139.973 53.2708 139.486 53.0273C138.999 52.7839 138.09 52.6621 136.758 52.6621V51.8672H150.293C153.816 51.8672 156.395 52.1107 158.027 52.5977C159.66 53.0846 160.992 53.987 162.023 55.3047C163.055 56.6081 163.57 58.1406 163.57 59.9023C163.57 62.0508 162.797 63.8268 161.25 65.2305C160.262 66.1185 158.88 66.7845 157.104 67.2285L164.107 77.0898C165.024 78.3646 165.676 79.1595 166.062 79.4746C166.65 79.9186 167.33 80.1621 168.104 80.2051V81H158.93L149.541 67.7227H147.629ZM147.629 53.4355V66.1973H148.854C150.844 66.1973 152.334 66.0182 153.322 65.6602C154.311 65.2878 155.084 64.6289 155.643 63.6836C156.215 62.724 156.502 61.4779 156.502 59.9453C156.502 57.7253 155.979 56.0853 154.934 55.0254C153.902 53.9655 152.234 53.4355 149.928 53.4355H147.629ZM183.852 80.2051V81H168.619V80.2051H169.586C170.431 80.2051 171.111 80.0547 171.627 79.7539C171.999 79.5534 172.286 79.2096 172.486 78.7227C172.644 78.3789 172.723 77.4766 172.723 76.0156V56.8516C172.723 55.362 172.644 54.431 172.486 54.0586C172.329 53.6862 172.007 53.3639 171.52 53.0918C171.047 52.8053 170.402 52.6621 169.586 52.6621H168.619V51.8672H183.852V52.6621H182.885C182.04 52.6621 181.359 52.8125 180.844 53.1133C180.471 53.3138 180.178 53.6576 179.963 54.1445C179.805 54.4883 179.727 55.3906 179.727 56.8516V76.0156C179.727 77.5052 179.805 78.4362 179.963 78.8086C180.135 79.181 180.457 79.5104 180.93 79.7969C181.417 80.069 182.068 80.2051 182.885 80.2051H183.852ZM212.641 51.8672V59.752H211.867C211.409 57.9329 210.9 56.6296 210.342 55.8418C209.783 55.0397 209.017 54.4023 208.043 53.9297C207.499 53.6719 206.546 53.543 205.186 53.543H203.016V76.0156C203.016 77.5052 203.094 78.4362 203.252 78.8086C203.424 79.181 203.746 79.5104 204.219 79.7969C204.706 80.069 205.365 80.2051 206.195 80.2051H207.162V81H191.908V80.2051H192.875C193.72 80.2051 194.4 80.0547 194.916 79.7539C195.288 79.5534 195.582 79.2096 195.797 78.7227C195.954 78.3789 196.033 77.4766 196.033 76.0156V53.543H193.928C191.965 53.543 190.54 53.9583 189.652 54.7891C188.406 55.9492 187.618 57.6035 187.289 59.752H186.473V51.8672H212.641ZM245.512 51.8672V52.6621C244.552 52.791 243.814 53.0703 243.299 53.5C242.583 54.1016 241.451 55.7415 239.904 58.4199L233.588 68.9688V76.0156C233.588 77.5195 233.667 78.4577 233.824 78.8301C233.982 79.1882 234.29 79.5104 234.748 79.7969C235.221 80.069 235.844 80.2051 236.617 80.2051H238.25V81H221.9V80.2051H223.426C224.285 80.2051 224.965 80.0547 225.467 79.7539C225.839 79.5534 226.133 79.2096 226.348 78.7227C226.505 78.3789 226.584 77.4766 226.584 76.0156V70.1719L219.73 57.6895C218.37 55.2259 217.41 53.7793 216.852 53.3496C216.293 52.9056 215.548 52.6764 214.617 52.6621V51.8672H228.582V52.6621H227.959C227.114 52.6621 226.52 52.7839 226.176 53.0273C225.846 53.2708 225.682 53.5286 225.682 53.8008C225.682 54.3164 226.255 55.6126 227.4 57.6895L232.664 67.3359L237.906 58.5488C239.21 56.4004 239.861 54.9753 239.861 54.2734C239.861 53.8867 239.675 53.5645 239.303 53.3066C238.816 52.9486 237.921 52.7337 236.617 52.6621V51.8672H245.512Z" fill="white"/>
</svg>
